<?xml version="1.0" encoding="UTF-8"?>
<svg version="1.1" viewBox="0 0 1536 1024" width="1536" height="1024" xmlns="http://www.w3.org/2000/svg">
<path transform="translate(0)" d="m0 0h1536v1024h-1536z"/>
<path transform="translate(450,280)" d="m0 0h635l6 3 3 5v11l-6 20-9 19-7 10-9 11-10 10-12 9-14 8-16 7-15 4-12 2-96 1-1 13-3 19v6l99 1 16 4 16 8 11 9 8 10 6 10 6 16 10 34 14 47 30 100 1 5v16l-4 10-2 4h-2l-2 4-9 7-9 4-13 2h-5v7l-3 8-6 4-3 1h-99l-6-3-8-7h-328l-5 5-6 4-3 1h-95l-6-3-4-4-2-5-1-7-16-3-12-5-10-9-6-12-1-4v-15l5-19 17-57 12-40 21-71 5-13 6-11 6-8 9-9 9-6 8-4 14-4 7-1h98l-5-32v-7l-97-1-19-4-12-4-17-8-13-9-11-9-10-11-10-14-8-16-4-11-4-14v-13l4-5z" fill="#99E1D1"/>
<path transform="translate(450,280)" d="m0 0h635l6 3 3 5v11l-6 20-9 19-7 10-9 11-10 10-12 9-14 8-16 7-15 4-12 2-96 1-1 13-3 19v6l99 1 16 4 16 8 11 9 8 10 6 10 6 16 10 34 14 47 30 100 1 5v16l-4 10-2 4h-2l-2 4-9 7-9 4-13 2h-5v7l-3 8-6 4-3 1h-99l-6-3-8-7h-328l-5 5-6 4-3 1h-95l-6-3-4-4-2-5-1-7-16-3-12-5-10-9-6-12-1-4v-15l5-19 17-57 12-40 21-71 5-13 6-11 6-8 9-9 9-6 8-4 14-4 7-1h98l-5-32v-7l-97-1-19-4-12-4-17-8-13-9-11-9-10-11-10-14-8-16-4-11-4-14v-13l4-5zm111 176-13 2-12 5-10 8-7 8-6 11-5 14-20 67-21 71-11 37-1 11 3 10 4 6 7 6 10 3h574l9-1 10-6 5-6 3-7v-14l-39-131-17-56-5-12-7-9-10-9-13-6-13-2z" fill="#18191B"/>
<path transform="translate(465,300)" d="m0 0h606l-3 11-8 16-7 11-11 12-11 9-13 8-16 7-16 4-7 1-32 1h-375l-19-1-21-5-16-7-12-8-14-12-9-11-8-13-6-14z" fill="#F5F6F6"/>
<path transform="translate(750,502)" d="m0 0h36l18 3 17 5 16 7 15 8 16 12 13 12 9 10 11 16 8 16 6 17 3 14 1 11v9l-2 10-2 2h-294l-3-4-1-12 2-20 4-15 6-16 10-18 10-13 12-13 10-9 13-9 16-9 15-6 17-5z" fill="#F7F7F7"/>
<path transform="translate(897,471)" d="m0 0h90l16 4 10 5-2-2 1-3 7 10 2 6h2l13 42 18 60 18 61 8 27v14l-5 10-7 6-6 3-9 1h-574l-10-3-9-8-4-9-1-11 5-19 11-36h2l4-16 10-33 13-44 13-43 4-8 4-2 6-4 2 1-6 8-6 16-8 28-16 55-19 66-5 21 1 9 5 8 5 4 7 3h472l-5-2-1-9-2-8-1-6-2-2-4-1 2-4v-11l-1-9 2-3 4-1 1-2-5 1-1-1v-5l1-1h5v-2l4-2 1-6-4-1v-5l5-4v-8l3-7 1-13 3-10 1-1 2-11 1-4v-3l3-15v-13l-4-4 1-10 4-2 3 1v-3l3-1 1-8v-9l-3-4-1-13v-4h-79z" fill="#65BCAF"/>
<path transform="translate(755,485)" d="m0 0h25l24 3 21 6 16 6 17 9 16 11 13 11 14 14 11 15 10 17 8 20 5 21 1 7v30l-3 11-5 5-2 1h-316l-6-4-3-7-2-18 1-19 3-17 7-21 8-16 10-16 12-14 15-15 16-12 16-9 17-8 19-6 21-4zm-5 17-18 3-20 6-18 8-16 10-10 8-12 11-9 10-9 13-9 16-7 19-4 18-1 18 2 10 2 2h294l3-4 1-8v-9l-2-16-4-16-8-19-9-15-9-11-9-10-12-11-16-11-21-11-21-7-14-3-8-1z" fill="#161618"/>
<path transform="translate(1040,302)" d="m0 0h29l-3 10-4 9-2 6-7 11-11 12-11 9-13 8-16 7-16 4-7 1-32 1h-375l-17-1v-2l-14-2-17-6-15-8 1-2h1l1-10 2-2-2-4 8 6 10 7 14 6 17 4h411l17-4 12-5 11-7 11-10 7-10 6-12z" fill="#C1CCCE"/>
<path transform="translate(696,399)" d="m0 0h136v1h-6v38l-2 1h-113l-2-2v-37h-13z"/>
<path transform="translate(551,490)" d="m0 0h6l5 4-1 9-15 60-18 71-7 28-3 6-5 4-7 1-5-3-1-1v-8l8-32 9-34 9-35 14-54 4-11z" fill="#F6F7F7"/>
<path transform="translate(596,458)" d="m0 0h138l26 1 11 2 10 3 7 1h2l6-1 4 2v2h38l2 1-1-2h-4v-2l-3-1v-2h-5l-4-3h46l4 1v2l5 1 7 3v2l-5 2h-8l-7 1h-259l-18-1v-1l9-1-2-2h2v-6z" fill="#BAF5E6"/>
<path transform="translate(822,566)" d="m0 0 4 1-1 5-10 13-9 11-13 16-6 8-3 8-5 6-7 3h-7l-7-3-6-7-1-3v-9l4-7 6-4 12-3 13-10 12-8 20-14z" fill="#161719"/>
<path transform="translate(561,456)" d="m0 0h417l4 2-414 1-11-1v2l-12 2-5 4-2 4-7-2 5-5 12-5z" fill="#AFDAD4"/>
<path transform="translate(734,458)" d="m0 0h135l-2 2h-37l5 5v2l5-1v3h-47v-1h7v-2l-5-1-7 2v-2h-8l-12-4-8-1-26-1z" fill="#98E1D1"/>
<path transform="translate(899,590)" d="m0 0 3 4 5 11 3-3-3 1 1-7 2 2 4 13 2 9 1 9v19l1 2-3 3h-7v-3l-1 2-2-1 3-6 1-4v-14l-3-16-5-14-2-4z" fill="#C2CACD"/>
<path transform="translate(891,569)" d="m0 0 5 1 5 5 8 16 6 17 3 14 1 11v9l-2 7-1-4v-16l-2-13-4-15-1-1-1 2h2l-1 3-3 1-5-12-1-4h-2l-10-17v-3h2z" fill="#E5EBEB"/>
<path transform="translate(641,603)" d="m0 0h8l16 3 3 2 1 4-2 4-2 1-12-1-13-3-2-2v-5z" fill="#131415"/>
<path transform="translate(566,463)" d="m0 0 9 3 2 4-5 5-7 4-10 1-5-3 1-7 5-4z" fill="#F2F7F6"/>
<path transform="translate(886,603)" d="m0 0h8l3 3-1 6-3 2-17 3h-6l-3-3v-5l4-3z" fill="#131315"/>
<path transform="translate(759,483)" d="m0 0h16l27 3 15 4v1l-9-1-18-3-10-1h-25l-17 2-19 4-20 7-20 10-11 7-2-1 1-4 8-4 5-2 6-2 6-3 4-4 9-2 10-4 14-4z" fill="#D8EFEA"/>
<path transform="translate(766,511)" d="m0 0 5 1 2 2v23l-2 2h-6l-3-2v-23z" fill="#131415"/>
<path transform="translate(840,536)" d="m0 0h6l3 4-1 5-10 13-6 1-4-4 1-5 10-13z" fill="#131415"/>
<path transform="translate(689,536)" d="m0 0h6l10 13 2 6-4 4-5-1-8-9-4-6 1-5z" fill="#131315"/>
<path transform="translate(589,472)" d="m0 0h52l-1 2h-19l-4 3v5l-8-1-3-3-13-2z" fill="#BAF5E6"/>
<path transform="translate(660,517)" d="m0 0h5l-5 5-13 12-4 2 1-7-2-1 1-5 5 1h2l5-2 3-3z" fill="#BDF2E5"/>
<path transform="translate(795,464)" d="m0 0 5 2v2l37 1-4 2-42-1-2-3 2-2z" fill="#BBF6E7"/>
<path transform="translate(510,361)" d="m0 0 19 9 17 5 9 2v2l-20-4-15-6-10-6z" fill="#E6EEED"/>
<path transform="translate(679,475)" d="m0 0 3 1v2l6-1 4 2-1 3-12 1-4-3v-2h3z" fill="#BAF5E6"/>
<path transform="translate(465,300)" d="m0 0 15 1v2l-11 1 4 10v3h-3l-5-15z" fill="#E0E5E6"/>
<path transform="translate(548,458)" d="m0 0 6 1-3 2-8 2-3 3-2 4-7-2 5-5z" fill="#C1F1E6"/>
<path transform="translate(746,484)" d="m0 0 3 1-5 2-25 5-4-1 2-2 15-3z" fill="#D3EFE9"/>
<path transform="translate(660,517)" d="m0 0h5l-5 5-11 10-2-1 5-6v-2l3-1 3-3z" fill="#D6F3EC"/>
<path transform="translate(905,593)" d="m0 0 3 3 1 4-1 2h2l-1 3-3 1-4-10 1-2 2 1z" fill="#F5F5F6"/>
<path transform="translate(517,482)" d="m0 0 4 1-5 6-4 11-2 4-1-3 5-14z" fill="#A2E3D5"/>
<path transform="translate(639,532)" d="m0 0 2 4 1 1-2 4-5 4 2-4-1-5 1-3z" fill="#CCF3E9"/>
<path transform="translate(640,516)" d="m0 0h3v6l-7-1 2-4z" fill="#BBF6E7"/>
<path transform="translate(548,458)" d="m0 0 6 1-3 2-13 3v-2z" fill="#D2F2EA"/>
<path transform="translate(1011,473)" d="m0 0 5 5 6 10-1 3-5-9-5-7z" fill="#9AE1D2"/>
<path transform="translate(679,505)" d="m0 0 1 2-11 7-3-1 1-2 8-4z" fill="#B7F3E4"/>
<path transform="translate(822,566)" d="m0 0 4 1-1 5-4 4 2-5 1-3-5 3-2-1z" fill="#030304"/>
<path transform="translate(628,470)" d="m0 0 17 1v4h-2v-2l-16-1z" fill="#A1E6D6"/>
<path transform="translate(469,306)" d="m0 0 4 8v3h-3l-2-5z" fill="#D7E0E1"/>
</svg>
