<svg width="147" height="161" viewBox="0 0 147 161" fill="none" xmlns="http://www.w3.org/2000/svg">
<path d="M66.831 14.9871C69.6336 14.584 73.5495 16.3116 75.1812 18.6343C76.8128 20.957 76.3329 24.5082 72.1867 24.1243C69.0578 23.8363 63.5678 20.3427 64.5276 16.6955C65.4873 13.0483 65.7561 15.1407 66.8502 14.9871H66.831ZM67.1958 17.2906C66.9654 17.3674 66.7927 17.5401 66.6967 17.7705C66.4279 18.8646 69.4033 20.9762 70.3247 21.3793C71.2461 21.7824 75.2004 22.5694 73.6647 20.3427C72.6281 18.8262 69.0386 16.7531 67.1958 17.3098V17.2906Z" fill="black"/>
<path d="M99.0801 28.6161C100.52 28.5009 103.802 28.7888 104.09 30.574C104.896 35.6033 93.6477 36.7743 92.8223 33.2039C92.1121 30.1325 96.7766 28.7697 99.0801 28.5969V28.6161ZM98.3123 30.7276C97.602 30.8236 94.5691 31.8026 95.1834 32.8007C95.7976 33.7989 101.172 32.9927 101.787 31.5146C102.075 30.4013 98.8881 30.6508 98.3123 30.7276Z" fill="black"/>
<path d="M93.5133 17.6745C97.3333 16.8875 100.539 23.8555 98.8305 26.8309C97.9284 28.3857 95.4905 28.0978 94.2044 27.2724C91.7857 25.7175 89.9237 18.4232 93.5133 17.6937V17.6745ZM93.8013 19.978C92.7455 21.2833 94.953 26.4278 96.5079 26.0438C98.0627 25.6599 96.0856 18.8071 93.8013 19.978Z" fill="black"/>
<path d="M85.7388 32.724C84.7406 31.6106 86.9097 30.5165 87.6775 30.0558C88.4454 29.5951 90.6145 28.0786 91.5551 29.3263C92.0925 30.4397 89.7315 31.5914 88.8869 32.0521C88.0423 32.5128 86.5066 33.5878 85.7388 32.7432V32.724Z" fill="black"/>
<path d="M84.0884 21.5137C84.8562 21.4369 88.4842 23.8939 88.7338 24.6618C89.7703 28.0594 83.4933 24.0091 83.2438 22.8574C82.9942 21.7056 83.167 22.3967 83.2438 22.1663C83.3206 21.8784 83.8197 21.5329 84.1076 21.4945L84.0884 21.5137Z" fill="black"/>
<path d="M80.0571 26.4854C80.9017 26.2934 84.76 26.4854 85.2015 27.2148C86.2957 28.9808 82.5525 28.8081 81.7271 28.7505C80.9017 28.6929 78.8861 28.6545 79.0013 27.522C79.1549 27.0229 79.558 26.6006 80.0571 26.4854Z" fill="black"/>
<path d="M67.1958 17.2906C69.0386 16.7339 72.6282 18.807 73.6648 20.3235C75.2004 22.5694 71.5725 21.8976 70.3247 21.3601C69.077 20.8226 66.428 18.8646 66.6967 17.7513C66.7927 17.5209 66.9655 17.3482 67.1958 17.2714V17.2906Z" fill="#F6DFA6"/>
<path d="M98.3121 30.7276C98.9071 30.6508 102.094 30.4012 101.786 31.5146C101.172 32.9927 95.8358 33.8565 95.1832 32.8007C94.5305 31.7449 97.6018 30.8236 98.3121 30.7276Z" fill="#F6DFA6"/>
<path d="M93.8013 19.978C96.0856 18.8071 98.2355 25.6024 96.5079 26.0439C94.7803 26.4854 92.7647 21.2833 93.8013 19.978Z" fill="#F6DFA6"/>
<path d="M90.3798 60.9473C102.181 57.3394 110.531 50.4368 109.031 45.5298C107.531 40.6229 96.748 39.5699 84.9471 43.1778C73.1461 46.7857 64.7957 53.6883 66.2959 58.5952C67.7961 63.5022 78.5788 64.5552 90.3798 60.9473Z" fill="#FDAE55"/>
<path d="M111.807 44.5869C111.327 42.9936 110.002 40.8053 106.509 39.404C104.263 38.5018 101.46 38.0603 98.1587 38.0603C93.8396 38.0603 89.0023 38.8474 84.1266 40.3446C78.0608 42.2066 72.6284 44.9516 68.8276 48.1189C64.355 51.8236 62.4931 55.8164 63.5872 59.3868C64.0671 60.98 65.3916 63.1683 68.8852 64.5696C71.1311 65.4718 73.9337 65.9133 77.2354 65.9133C80.537 65.9133 86.3917 65.1263 91.2674 63.629C97.3333 61.767 102.766 59.022 106.566 55.8547C111.039 52.15 112.901 48.1573 111.807 44.5869ZM90.4228 60.8648C85.6815 62.3237 81.1129 63.0147 77.2354 63.0147C71.4574 63.0147 67.2344 61.4599 66.3322 58.523C65.1229 54.5494 70.3441 49.2706 78.6366 45.4891C79.6156 46.1225 80.3451 47.1975 80.4986 48.3492C80.5562 48.7715 80.5562 49.213 80.5562 49.6929C80.5562 50.4416 81.1513 51.0366 81.8999 51.0366C82.6293 51.0366 83.2436 50.4416 83.2436 49.6929C83.2436 49.1363 83.2436 48.5796 83.1668 47.9653C82.9749 46.6024 82.3414 45.3163 81.4008 44.3181C82.5526 43.8766 83.7427 43.4735 84.9712 43.0896C86.1806 42.7249 87.3707 42.3986 88.5608 42.1298C89.5398 43.4543 90.0581 45.1244 90.0005 46.7752C89.9813 47.5238 90.5572 48.1381 91.2866 48.1765C91.2866 48.1765 91.325 48.1765 91.3442 48.1765C92.0544 48.1765 92.6687 47.6006 92.6879 46.8904C92.7647 45.0476 92.2848 43.1856 91.3826 41.5732C93.7821 41.1508 96.0663 40.9589 98.1587 40.9589C103.937 40.9589 108.16 42.5137 109.062 45.4507C110.559 50.3648 102.228 57.2752 90.4228 60.884V60.8648Z" fill="#231F20"/>
<path d="M37.3853 17.4633C42.8945 16.8491 48.4612 19.2293 51.0527 24.2202C62.8388 23.7403 65.699 38.9433 53.3561 40.9013C51.1102 44.3949 50.3616 48.2724 50.6687 52.3995C50.7647 53.6281 51.7437 56.5458 51.2446 57.3904C50.7455 58.235 50.7263 57.9279 50.5152 58.0047C47.6166 58.2542 44.6221 58.7917 41.7235 59.0028C41.0517 59.0604 39.6504 59.2332 39.1513 58.8877C38.6522 58.5421 38.0572 55.0101 37.7884 53.9352C36.8094 50.2112 35.1202 47.1015 32.1065 44.6445C20.5891 47.0823 14.6768 32.2056 26.7893 28.3281C26.7125 22.435 31.8378 18.0584 37.3853 17.4441V17.4633ZM35.3698 38.3675C36.272 37.638 37.1358 38.9049 37.9996 39.3656C40.5526 40.7285 43.7391 40.5558 45.9658 38.6938C48.1925 36.8318 47.6358 36.6782 47.9238 36.6015C48.538 36.4287 49.1523 37.0622 49.709 37.2349C51.5517 37.83 54.1816 37.734 55.8324 36.6399C59.4796 34.2212 58.3278 29.5374 54.5079 28.0402C50.6879 26.5429 50.8991 27.5411 48.9411 27.6563C48.4804 27.4259 48.0581 25.7559 47.751 25.18C43.9311 18.0584 30.6476 19.4981 30.1101 28.021C30.0526 28.808 30.4173 30.2669 30.0142 30.8044C29.6111 31.3418 27.7875 31.3226 27.0004 31.6298C24.3706 32.6088 22.739 35.2961 23.7564 38.0411C25.196 41.9379 30.6284 42.5521 33.6805 40.2103C34.314 39.7304 34.8899 38.7322 35.3698 38.3483V38.3675ZM49.517 40.4214C49.421 40.3254 47.1943 41.6499 47.1175 41.7651C46.772 42.3218 47.2327 44.2222 46.177 44.8556C44.4301 45.8922 44.0078 43.1472 43.8351 43.1088L41.4548 43.32C41.5892 44.2222 41.282 45.2971 40.2263 45.2395C39.0361 45.1627 39.0553 43.3967 38.4411 42.936C37.8268 42.4753 36.0032 41.8995 35.3122 42.8593C39.1129 46.2953 40.8597 51.2094 41.6468 56.1811L47.9813 55.4132C47.1943 51.9004 47.0024 48.2149 47.9238 44.7212C48.3077 43.224 49.0947 41.9187 49.517 40.4598V40.4214Z" fill="black"/>
<path d="M35.3698 38.3675C34.8899 38.7514 34.314 39.7304 33.6805 40.2295C30.6284 42.5713 25.196 41.9571 23.7564 38.0603C22.3167 34.1636 24.3898 32.628 27.0004 31.649C29.6111 30.67 29.6878 31.2651 30.0142 30.8236C30.3405 30.3821 30.0718 28.8272 30.1101 28.0402C30.6476 19.5173 43.9311 18.0776 47.751 25.1992C48.0581 25.7559 48.4804 27.4451 48.9411 27.6755C50.8991 27.5603 52.6459 27.3108 54.5079 28.0594C58.347 29.5758 59.4988 34.2404 55.8324 36.6591C52.166 39.0777 51.5517 37.8492 49.709 37.2541C47.8662 36.6591 48.538 36.4479 47.9238 36.6207C47.3095 36.7934 46.4457 38.3099 45.9658 38.713C43.7391 40.575 40.5334 40.7477 37.9996 39.3848C37.1358 38.9242 36.272 37.6572 35.3698 38.3867V38.3675Z" fill="#CAF6A2"/>
<path d="M49.5168 40.4215C49.0945 41.8803 48.3267 43.1856 47.9236 44.6829C47.0022 48.1957 47.1942 51.8621 47.9812 55.3749L41.6466 56.1427C40.8788 51.1711 39.132 46.257 35.312 42.8209C36.0031 41.8611 37.6731 42.3218 38.4409 42.8977C39.2087 43.4736 39.036 45.1244 40.2261 45.2012C41.3011 45.2588 41.589 44.1838 41.4546 43.2816L43.8349 43.0705C44.0077 43.1089 44.43 45.8539 46.1768 44.8173C47.9236 43.7807 46.791 42.2834 47.1174 41.7268C47.4437 41.1701 49.4209 40.2871 49.5168 40.3831V40.4215Z" fill="#B5E78D"/>
<path d="M133.134 134.384C129.813 123.577 126.876 112.616 123.478 101.848C122.077 97.3943 121.271 94.0734 117.144 91.2901C115.474 90.1575 111.865 88.7562 109.888 88.7562H95.0109L96.1626 82.2297C101.787 81.9417 107.795 82.8823 113.285 81.5962C120.56 79.8878 126.761 74.6666 129.525 67.6985C129.947 66.6428 130.792 64.1857 130.734 63.1492C130.696 62.4197 129.774 61.1336 129.083 61.1336H16.5964C15.1376 61.1336 15.08 63.1875 15.2527 64.2049C16.4237 71.672 24.006 79.0624 31.0508 81.2123C36.8287 82.9783 43.0481 81.9417 49.018 82.2489C49.3251 82.3449 49.3635 82.7288 49.4403 82.9783C49.805 84.226 50.4193 87.2014 50.496 88.4491C50.5152 88.8522 50.496 88.6986 50.2081 88.737C40.8598 89.1593 28.7665 86.1648 24.1595 96.8568C20.9539 108.297 17.1339 119.623 14.1202 131.121C13.5059 133.463 12.7957 135.325 13.5827 137.782C14.5809 140.873 17.9017 142.159 20.9347 142.043C21.0306 145.268 22.4319 146.094 25.4456 146.209C29.0352 146.324 32.836 146.094 36.3872 146.055C39.4777 146.055 42.4338 146.842 44.6414 143.944H101.096C102.132 144.078 102.747 145.844 104.743 146.075C110.483 145.671 116.952 146.612 122.595 146.075C124.841 145.863 125.666 144.136 125.551 142.043C130.293 142.389 133.825 139.26 133.153 134.365L133.134 134.384ZM36.368 78.6017C28.2098 78.237 21.1074 72.2671 19.1878 64.3969H126.684C124.956 72.3247 117.643 78.2946 109.504 78.6017H36.368ZM82.9176 82.2297V88.7562H62.9541V82.2297H82.9176ZM125.263 139.375H21.3954C18.0745 139.145 16.1933 137.129 17.1339 133.77C21.0498 122.579 23.2381 110.083 27.25 98.9875C28.5745 95.3211 31.1276 92.6913 35.0819 92.0387L110.483 91.9811C113.938 92.3842 116.952 94.5341 118.391 97.6822C121.52 109.411 126.204 121.255 129.122 132.983C130.024 136.611 129.237 138.819 125.244 139.356L125.263 139.375Z" fill="black"/>
<path d="M35.082 92.0579L110.483 92.0003C113.938 92.4034 116.952 94.5533 118.391 97.7014C121.52 109.43 126.204 121.274 129.122 133.002C130.024 136.63 129.237 138.838 125.244 139.375H21.3955C18.0747 139.145 16.1935 137.129 17.1341 133.77C21.05 122.579 23.2383 110.083 27.2502 98.9875C28.5747 95.3211 31.1277 92.6913 35.082 92.0579ZM69.4424 97.2407C54.988 98.4117 41.8581 112.233 42.9907 127.013C43.1059 128.415 43.5282 129.835 44.9678 130.411L100.117 130.564C104.302 130.315 103.131 123.75 102.632 120.928C99.8675 105.073 84.9717 95.993 69.4424 97.2407Z" fill="#97E6D2"/>
<path d="M126.683 64.3969C124.956 72.3247 117.642 78.2946 109.503 78.6017H36.3677C28.2095 78.237 21.1071 72.2672 19.1875 64.3969H126.683Z" fill="white"/>
<path d="M82.9171 82.2297H62.9536V88.7562H82.9171V82.2297Z" fill="white"/>
<path d="M69.4421 97.2407C84.9523 95.993 99.8673 105.073 102.632 120.928C103.131 123.75 104.302 130.296 100.117 130.564L44.9676 130.411C43.5279 129.854 43.0864 128.415 42.9905 127.013C41.8771 112.233 54.9878 98.4117 69.4421 97.2407ZM71.7456 100.12C59.2108 100.638 47.5015 110.313 46.4457 123.174C46.3689 124.23 46.081 127.052 47.1943 127.397L98.3701 127.493C100.539 127.608 99.7714 123.673 99.5794 122.234C97.8134 108.758 84.9907 99.5634 71.7264 100.12H71.7456Z" fill="black"/>
<path d="M71.7454 100.12C84.9904 99.5634 97.8324 108.758 99.5984 122.234C99.7903 123.673 100.558 127.608 98.3891 127.493L47.2133 127.397C46.1 127.052 46.3687 124.23 46.4647 123.174C47.5012 110.313 59.2106 100.638 71.7646 100.12H71.7454ZM71.9758 102.654V106.493C72.3021 107.146 73.8953 107.069 73.8953 106.493V102.654C73.8953 102.136 72.1869 101.886 71.9758 102.654ZM59.4602 106.416C58.8843 106.493 58.4044 107.184 58.6539 107.722C58.9035 108.259 60.9382 110.371 61.3605 110.428C62.0132 110.524 62.7042 109.871 62.5123 109.276C62.3203 108.681 60.1704 106.32 59.4794 106.416H59.4602ZM86.3341 106.416C86.1422 106.474 84.1842 108.432 84.1266 108.643C83.8387 109.584 84.8177 110.409 85.7391 109.852C86.6605 109.296 87.5819 108.009 87.6586 107.741C87.9274 106.896 87.102 106.205 86.3341 106.416ZM81.9191 111.791C81.42 111.887 79.846 113.212 79.3085 113.595C78.08 114.498 74.7208 117.531 73.7226 117.991C72.7244 118.452 72.6092 118.087 72.0333 118.222C68.4629 119.105 69.0772 124.671 73.4346 124.422C75.6997 124.287 76.2756 122.502 76.6979 120.583L82.8981 112.559C82.9941 111.964 82.4566 111.657 81.9191 111.772V111.791ZM51.5899 118.318C50.8605 118.529 50.5342 119.68 51.2636 120.103C51.993 120.525 54.9876 120.909 55.5442 120.736C56.1009 120.563 56.2929 119.45 55.7554 119.066C55.2179 118.682 52.0506 118.183 51.5899 118.318ZM93.8397 118.337C92.9951 118.375 90.4036 118.701 90.4036 119.719C90.4036 121.446 93.3406 120.621 94.4539 120.314C96.0856 119.853 95.6249 118.241 93.8397 118.337Z" fill="white"/>
<path d="M51.5898 118.318C52.0505 118.183 55.3521 118.778 55.7553 119.066C56.1584 119.354 56.1776 120.544 55.5441 120.736C54.9106 120.928 51.7626 120.372 51.2635 120.103C50.534 119.681 50.8604 118.529 51.5898 118.318Z" fill="black"/>
<path d="M93.84 118.337C95.6252 118.241 96.105 119.853 94.4542 120.314C92.8034 120.775 90.3847 121.447 90.4039 119.719C90.4231 117.991 92.9953 118.375 93.84 118.337Z" fill="black"/>
<path d="M71.9761 102.654C72.1872 101.886 73.8956 102.136 73.8956 102.654V106.493C73.8956 107.069 72.3024 107.146 71.9761 106.493V102.654Z" fill="black"/>
<path d="M59.4604 106.416C60.1514 106.32 62.3014 108.701 62.4933 109.276C62.6853 109.852 61.9942 110.524 61.3416 110.428C60.6889 110.332 58.8269 108.163 58.635 107.722C58.443 107.28 58.8845 106.512 59.4412 106.416H59.4604Z" fill="black"/>
<path d="M86.3344 106.416C87.1022 106.205 87.9085 106.896 87.6589 107.741C87.4094 108.585 85.9889 109.699 85.7393 109.852C84.8179 110.39 83.839 109.584 84.1269 108.643C84.4148 107.702 86.1616 106.474 86.3344 106.416Z" fill="black"/>
<path d="M81.9194 111.791C82.4569 111.676 82.9944 111.983 82.8984 112.578L76.6982 120.602C76.2759 122.502 75.7 124.307 73.4349 124.441C69.0583 124.691 68.444 119.124 72.0336 118.241C75.6232 117.358 73.3005 118.202 73.7228 118.011C74.7402 117.55 78.0802 114.517 79.3088 113.615C80.5373 112.712 81.4203 111.906 81.9194 111.81V111.791Z" fill="black"/>
</svg>
